<svg xmlns="http://www.w3.org/2000/svg" xmlns:xlink="http://www.w3.org/1999/xlink" width="800" height="600" viewBox="0 0 800 600">
  <title>Imperial College London</title>
  <rect width="800" height="600" fill="#f8f9fa"/>
  
  <!-- Main Building (Queen's Tower) -->
  <g>
    <!-- Base Building -->
    <rect x="250" y="300" width="300" height="150" fill="#e8e8e8" stroke="#333" stroke-width="2"/>
    
    <!-- Tower -->
    <rect x="350" y="150" width="100" height="150" fill="#e0e0e0" stroke="#333" stroke-width="2"/>
    
    <!-- Tower Top -->
    <rect x="340" y="120" width="120" height="30" fill="#d0d0d0" stroke="#333" stroke-width="1"/>
    <polygon points="340,120 400,80 460,120" fill="#c0c0c0" stroke="#333" stroke-width="1"/>
    
    <!-- Clock -->
    <circle cx="400" cy="200" r="20" fill="#f5f5f5" stroke="#333" stroke-width="1"/>
    <line x1="400" y1="200" x2="400" y2="185" stroke="#333" stroke-width="1"/>
    <line x1="400" y1="200" x2="410" y2="200" stroke="#333" stroke-width="1"/>
    
    <!-- Windows -->
    <g>
      <!-- Tower Windows -->
      <rect x="365" y="230" width="20" height="30" fill="#d1e0ff" stroke="#333" stroke-width="1"/>
      <rect x="415" y="230" width="20" height="30" fill="#d1e0ff" stroke="#333" stroke-width="1"/>
      
      <!-- Main Building Windows -->
      <rect x="280" y="330" width="30" height="40" fill="#d1e0ff" stroke="#333" stroke-width="1"/>
      <rect x="330" y="330" width="30" height="40" fill="#d1e0ff" stroke="#333" stroke-width="1"/>
      <rect x="380" y="330" width="30" height="40" fill="#d1e0ff" stroke="#333" stroke-width="1"/>
      <rect x="430" y="330" width="30" height="40" fill="#d1e0ff" stroke="#333" stroke-width="1"/>
      <rect x="480" y="330" width="30" height="40" fill="#d1e0ff" stroke="#333" stroke-width="1"/>
    </g>
    
    <!-- Main Entrance -->
    <rect x="380" y="400" width="40" height="50" fill="#8b4513" stroke="#333" stroke-width="1"/>
    
    <!-- Steps -->
    <rect x="370" y="450" width="60" height="5" fill="#d0d0d0" stroke="#333" stroke-width="1"/>
    <rect x="375" y="455" width="50" height="5" fill="#d0d0d0" stroke="#333" stroke-width="1"/>
    <rect x="380" y="460" width="40" height="5" fill="#d0d0d0" stroke="#333" stroke-width="1"/>
  </g>
  
  <!-- Modern Science Building (Left) -->
  <g>
    <rect x="100" y="350" width="120" height="100" fill="#f0f0f0" stroke="#333" stroke-width="1"/>
    <rect x="110" y="360" width="100" height="80" fill="#d1e0ff" stroke="#333" stroke-width="1"/>
    <line x1="110" y1="380" x2="210" y2="380" stroke="#333" stroke-width="1"/>
    <line x1="110" y1="400" x2="210" y2="400" stroke="#333" stroke-width="1"/>
    <line x1="110" y1="420" x2="210" y2="420" stroke="#333" stroke-width="1"/>
    <line x1="160" y1="360" x2="160" y2="440" stroke="#333" stroke-width="1"/>
  </g>
  
  <!-- Modern Science Building (Right) -->
  <g>
    <rect x="580" y="350" width="120" height="100" fill="#f0f0f0" stroke="#333" stroke-width="1"/>
    <rect x="590" y="360" width="100" height="80" fill="#d1e0ff" stroke="#333" stroke-width="1"/>
    <line x1="590" y1="380" x2="690" y2="380" stroke="#333" stroke-width="1"/>
    <line x1="590" y1="400" x2="690" y2="400" stroke="#333" stroke-width="1"/>
    <line x1="590" y1="420" x2="690" y2="420" stroke="#333" stroke-width="1"/>
    <line x1="640" y1="360" x2="640" y2="440" stroke="#333" stroke-width="1"/>
  </g>
  
  <!-- Trees and Greenery -->
  <g>
    <circle cx="200" cy="480" r="20" fill="#6b8e23" stroke="#333" stroke-width="1"/>
    <rect x="195" y="500" width="10" height="20" fill="#8b4513" stroke="#333" stroke-width="1"/>
    
    <circle cx="600" cy="480" r="20" fill="#6b8e23" stroke="#333" stroke-width="1"/>
    <rect x="595" y="500" width="10" height="20" fill="#8b4513" stroke="#333" stroke-width="1"/>
  </g>
  
  <!-- Ground -->
  <rect x="50" y="520" width="700" height="5" fill="#8b4513" stroke="#333" stroke-width="1"/>
  
  <!-- Text -->
  <text x="400" y="550" font-family="sans-serif" font-size="24" text-anchor="middle" fill="#333">Imperial College London</text>
  <text x="400" y="580" font-family="sans-serif" font-size="16" text-anchor="middle" fill="#666">Free illustration of the Queen's Tower</text>
</svg>