<svg xmlns="http://www.w3.org/2000/svg" xmlns:xlink="http://www.w3.org/1999/xlink" width="800" height="600" viewBox="0 0 800 600">
  <title>University of Melbourne</title>
  <rect width="800" height="600" fill="#f8f9fa"/>
  
  <!-- Old Quad Building -->
  <g>
    <!-- Main Structure -->
    <rect x="200" y="150" width="400" height="200" fill="#e6d7b8" stroke="#333" stroke-width="2"/>
    
    <!-- Roof -->
    <rect x="190" y="130" width="420" height="20" fill="#a9a9a9" stroke="#333" stroke-width="1"/>
    
    <!-- Clock Tower -->
    <g>
      <rect x="350" y="80" width="100" height="70" fill="#e6d7b8" stroke="#333" stroke-width="2"/>
      <rect x="340" y="60" width="120" height="20" fill="#a9a9a9" stroke="#333" stroke-width="1"/>
      
      <!-- Clock Face -->
      <circle cx="400" cy="115" r="20" fill="white" stroke="#333" stroke-width="1"/>
      <circle cx="400" cy="115" r="18" fill="none" stroke="#333" stroke-width="0.5"/>
      <line x1="400" y1="115" x2="400" y2="100" stroke="#333" stroke-width="1"/>
      <line x1="400" y1="115" x2="410" y2="115" stroke="#333" stroke-width="1"/>
      
      <!-- Tower Top -->
      <polygon points="350,60 400,30 450,60" fill="#a9a9a9" stroke="#333" stroke-width="1"/>
      <rect x="395" y="20" width="10" height="10" fill="#a9a9a9" stroke="#333" stroke-width="0.5"/>
    </g>
    
    <!-- Windows - Top Row -->
    <rect x="230" y="170" width="30" height="50" fill="#d1e0ff" stroke="#333" stroke-width="1"/>
    <rect x="280" y="170" width="30" height="50" fill="#d1e0ff" stroke="#333" stroke-width="1"/>
    <rect x="330" y="170" width="30" height="50" fill="#d1e0ff" stroke="#333" stroke-width="1"/>
    <rect x="440" y="170" width="30" height="50" fill="#d1e0ff" stroke="#333" stroke-width="1"/>
    <rect x="490" y="170" width="30" height="50" fill="#d1e0ff" stroke="#333" stroke-width="1"/>
    <rect x="540" y="170" width="30" height="50" fill="#d1e0ff" stroke="#333" stroke-width="1"/>
    
    <!-- Windows - Bottom Row -->
    <rect x="230" y="250" width="30" height="50" fill="#d1e0ff" stroke="#333" stroke-width="1"/>
    <rect x="280" y="250" width="30" height="50" fill="#d1e0ff" stroke="#333" stroke-width="1"/>
    <rect x="330" y="250" width="30" height="50" fill="#d1e0ff" stroke="#333" stroke-width="1"/>
    <rect x="440" y="250" width="30" height="50" fill="#d1e0ff" stroke="#333" stroke-width="1"/>
    <rect x="490" y="250" width="30" height="50" fill="#d1e0ff" stroke="#333" stroke-width="1"/>
    <rect x="540" y="250" width="30" height="50" fill="#d1e0ff" stroke="#333" stroke-width="1"/>
    
    <!-- Main Door -->
    <rect x="380" y="250" width="40" height="100" fill="#8b4513" stroke="#333" stroke-width="1"/>
    <path d="M380,250 Q400,230 420,250" fill="none" stroke="#333" stroke-width="1"/>
    <circle cx="390" cy="300" r="3" fill="#d4af37" stroke="#333" stroke-width="0.5"/>
  </g>
  
  <!-- South Lawn and Surroundings -->
  <g>
    <!-- Lawn -->
    <rect x="150" y="400" width="500" height="100" fill="#90ee90" stroke="#333" stroke-width="1"/>
    
    <!-- Pathways -->
    <rect x="250" y="350" width="300" height="10" fill="#d3d3d3" stroke="#333" stroke-width="0.5"/>
    <rect x="395" y="350" width="10" height="150" fill="#d3d3d3" stroke="#333" stroke-width="0.5"/>
    
    <!-- Modern Building (Wilson Hall) -->
    <g transform="translate(600, 300)">
      <rect x="0" y="0" width="100" height="150" fill="#f0f0f0" stroke="#333" stroke-width="1"/>
      <rect x="10" y="20" width="80" height="100" fill="#d1e0ff" stroke="#333" stroke-width="1"/>
      <line x1="10" y1="45" x2="90" y2="45" stroke="#333" stroke-width="0.5"/>
      <line x1="10" y1="70" x2="90" y2="70" stroke="#333" stroke-width="0.5"/>
      <line x1="10" y1="95" x2="90" y2="95" stroke="#333" stroke-width="0.5"/>
      <line x1="50" y1="20" x2="50" y2="120" stroke="#333" stroke-width="0.5"/>
    </g>
    
    <!-- Modern Building (Arts West) -->
    <g transform="translate(100, 300)">
      <rect x="0" y="0" width="100" height="150" fill="#f0f0f0" stroke="#333" stroke-width="1"/>
      <path d="M0,0 L100,0 L100,150 L0,150 Z" fill="none" stroke="#333" stroke-width="1"/>
      <path d="M10,20 L90,20 L90,130 L10,130 Z" fill="#d1e0ff" stroke="#333" stroke-width="1"/>
      <path d="M10,20 L90,20 L90,130 L10,130 Z" fill="none" stroke="#333" stroke-width="1" stroke-dasharray="2,2"/>
    </g>
  </g>
  
  <!-- Trees -->
  <g>
    <circle cx="150" cy="350" r="25" fill="#228b22" stroke="#333" stroke-width="1"/>
    <rect x="145" y="375" width="10" height="25" fill="#8b4513" stroke="#333" stroke-width="1"/>
    
    <circle cx="650" cy="350" r="25" fill="#228b22" stroke="#333" stroke-width="1"/>
    <rect x="645" y="375" width="10" height="25" fill="#8b4513" stroke="#333" stroke-width="1"/>
    
    <circle cx="200" cy="450" r="15" fill="#228b22" stroke="#333" stroke-width="1"/>
    <rect x="197" y="465" width="6" height="15" fill="#8b4513" stroke="#333" stroke-width="1"/>
    
    <circle cx="600" cy="450" r="15" fill="#228b22" stroke="#333" stroke-width="1"/>
    <rect x="597" y="465" width="6" height="15" fill="#8b4513" stroke="#333" stroke-width="1"/>
  </g>
  
  <!-- University Crest (Simplified) -->
  <g transform="translate(400, 100) scale(0.5)">
    <rect x="-30" y="-30" width="60" height="60" fill="#003366" stroke="#d4af37" stroke-width="2"/>
    <text x="0" y="5" font-family="serif" font-weight="bold" font-size="12" text-anchor="middle" fill="#d4af37">MELB</text>
    <text x="0" y="20" font-family="serif" font-weight="bold" font-size="8" text-anchor="middle" fill="#d4af37">UNIVERSITY</text>
  </g>
  
  <!-- Text -->
  <text x="400" y="540" font-family="serif" font-size="24" text-anchor="middle" fill="#333">University of Melbourne</text>
  <text x="400" y="570" font-family="sans-serif" font-size="16" text-anchor="middle" fill="#666">Free illustration of the historic Old Quad</text>
</svg>