<svg xmlns="http://www.w3.org/2000/svg" xmlns:xlink="http://www.w3.org/1999/xlink" width="800" height="600" viewBox="0 0 800 600">
  <title>University of Oxford</title>
  <rect width="800" height="600" fill="#f8f9fa"/>
  <g>
    <!-- Main Building (Radcliffe Camera) -->
    <path d="M400,150 C300,150 220,230 220,330 C220,430 300,510 400,510 C500,510 580,430 580,330 C580,230 500,150 400,150 Z" fill="#e8e8e8" stroke="#333" stroke-width="2"/>
    <path d="M400,170 C310,170 240,240 240,330 C240,420 310,490 400,490 C490,490 560,420 560,330 C560,240 490,170 400,170 Z" fill="#f5f5f5" stroke="#333" stroke-width="1"/>
    
    <!-- Dome -->
    <ellipse cx="400" cy="330" rx="120" ry="30" fill="#e0e0e0" stroke="#333" stroke-width="1"/>
    <path d="M320,330 C320,280 350,240 400,240 C450,240 480,280 480,330" fill="none" stroke="#333" stroke-width="2"/>
    
    <!-- Windows -->
    <g>
      <!-- First row -->
      <rect x="340" y="280" width="20" height="40" rx="10" fill="#d0d0d0" stroke="#333"/>
      <rect x="370" y="280" width="20" height="40" rx="10" fill="#d0d0d0" stroke="#333"/>
      <rect x="400" y="280" width="20" height="40" rx="10" fill="#d0d0d0" stroke="#333"/>
      <rect x="430" y="280" width="20" height="40" rx="10" fill="#d0d0d0" stroke="#333"/>
      
      <!-- Second row -->
      <rect x="320" y="340" width="20" height="40" rx="10" fill="#d0d0d0" stroke="#333"/>
      <rect x="350" y="340" width="20" height="40" rx="10" fill="#d0d0d0" stroke="#333"/>
      <rect x="380" y="340" width="20" height="40" rx="10" fill="#d0d0d0" stroke="#333"/>
      <rect x="410" y="340" width="20" height="40" rx="10" fill="#d0d0d0" stroke="#333"/>
      <rect x="440" y="340" width="20" height="40" rx="10" fill="#d0d0d0" stroke="#333"/>
      <rect x="470" y="340" width="20" height="40" rx="10" fill="#d0d0d0" stroke="#333"/>
      
      <!-- Third row -->
      <rect x="320" y="400" width="20" height="40" rx="10" fill="#d0d0d0" stroke="#333"/>
      <rect x="350" y="400" width="20" height="40" rx="10" fill="#d0d0d0" stroke="#333"/>
      <rect x="380" y="400" width="20" height="40" rx="10" fill="#d0d0d0" stroke="#333"/>
      <rect x="410" y="400" width="20" height="40" rx="10" fill="#d0d0d0" stroke="#333"/>
      <rect x="440" y="400" width="20" height="40" rx="10" fill="#d0d0d0" stroke="#333"/>
      <rect x="470" y="400" width="20" height="40" rx="10" fill="#d0d0d0" stroke="#333"/>
    </g>
    
    <!-- Columns -->
    <g>
      <rect x="300" y="330" width="10" height="150" fill="#d0d0d0" stroke="#333"/>
      <rect x="330" y="330" width="10" height="150" fill="#d0d0d0" stroke="#333"/>
      <rect x="360" y="330" width="10" height="150" fill="#d0d0d0" stroke="#333"/>
      <rect x="390" y="330" width="10" height="150" fill="#d0d0d0" stroke="#333"/>
      <rect x="420" y="330" width="10" height="150" fill="#d0d0d0" stroke="#333"/>
      <rect x="450" y="330" width="10" height="150" fill="#d0d0d0" stroke="#333"/>
      <rect x="480" y="330" width="10" height="150" fill="#d0d0d0" stroke="#333"/>
    </g>
    
    <!-- Steps -->
    <rect x="320" y="480" width="160" height="10" fill="#d0d0d0" stroke="#333"/>
    <rect x="330" y="490" width="140" height="10" fill="#d0d0d0" stroke="#333"/>
    <rect x="340" y="500" width="120" height="10" fill="#d0d0d0" stroke="#333"/>
  </g>
  
  <!-- Trees -->
  <g>
    <circle cx="200" cy="450" r="30" fill="#6b8e23" stroke="#333" stroke-width="1"/>
    <rect x="195" y="480" width="10" height="30" fill="#8b4513" stroke="#333" stroke-width="1"/>
    
    <circle cx="600" cy="450" r="30" fill="#6b8e23" stroke="#333" stroke-width="1"/>
    <rect x="595" y="480" width="10" height="30" fill="#8b4513" stroke="#333" stroke-width="1"/>
  </g>
  
  <!-- Ground -->
  <rect x="100" y="510" width="600" height="5" fill="#8b4513" stroke="#333" stroke-width="1"/>
  
  <!-- Text -->
  <text x="400" y="550" font-family="serif" font-size="24" text-anchor="middle" fill="#333">University of Oxford</text>
  <text x="400" y="580" font-family="serif" font-size="16" text-anchor="middle" fill="#666">Free illustration of the historic Radcliffe Camera</text>
</svg>