<svg xmlns="http://www.w3.org/2000/svg" xmlns:xlink="http://www.w3.org/1999/xlink" width="800" height="600" viewBox="0 0 800 600">
  <title>University of Sydney</title>
  <rect width="800" height="600" fill="#f8f9fa"/>
  
  <!-- Main Quadrangle Building -->
  <g>
    <!-- Main Structure -->
    <rect x="150" y="150" width="500" height="200" fill="#e8d0aa" stroke="#333" stroke-width="2"/>
    
    <!-- Roof -->
    <rect x="140" y="130" width="520" height="20" fill="#a9a9a9" stroke="#333" stroke-width="1"/>
    
    <!-- Central Tower (Clock Tower) -->
    <g>
      <rect x="350" y="50" width="100" height="100" fill="#e8d0aa" stroke="#333" stroke-width="2"/>
      <rect x="340" y="30" width="120" height="20" fill="#a9a9a9" stroke="#333" stroke-width="1"/>
      
      <!-- Tower Top -->
      <polygon points="350,30 400,0 450,30" fill="#a9a9a9" stroke="#333" stroke-width="1"/>
      
      <!-- Clock Face -->
      <circle cx="400" cy="90" r="20" fill="white" stroke="#333" stroke-width="1"/>
      <circle cx="400" cy="90" r="18" fill="none" stroke="#333" stroke-width="0.5"/>
      <line x1="400" y1="90" x2="400" y2="75" stroke="#333" stroke-width="1"/>
      <line x1="400" y1="90" x2="412" y2="90" stroke="#333" stroke-width="1"/>
      
      <!-- Tower Windows -->
      <rect x="365" y="60" width="20" height="20" fill="#d1e0ff" stroke="#333" stroke-width="1" rx="10" ry="10"/>
      <rect x="415" y="60" width="20" height="20" fill="#d1e0ff" stroke="#333" stroke-width="1" rx="10" ry="10"/>
    </g>
    
    <!-- Gothic Windows - Top Row -->
    <g>
      <rect x="180" y="170" width="20" height="40" fill="#d1e0ff" stroke="#333" stroke-width="1"/>
      <path d="M180,170 Q190,160 200,170" fill="none" stroke="#333" stroke-width="1"/>
      
      <rect x="220" y="170" width="20" height="40" fill="#d1e0ff" stroke="#333" stroke-width="1"/>
      <path d="M220,170 Q230,160 240,170" fill="none" stroke="#333" stroke-width="1"/>
      
      <rect x="260" y="170" width="20" height="40" fill="#d1e0ff" stroke="#333" stroke-width="1"/>
      <path d="M260,170 Q270,160 280,170" fill="none" stroke="#333" stroke-width="1"/>
      
      <rect x="300" y="170" width="20" height="40" fill="#d1e0ff" stroke="#333" stroke-width="1"/>
      <path d="M300,170 Q310,160 320,170" fill="none" stroke="#333" stroke-width="1"/>
      
      <rect x="480" y="170" width="20" height="40" fill="#d1e0ff" stroke="#333" stroke-width="1"/>
      <path d="M480,170 Q490,160 500,170" fill="none" stroke="#333" stroke-width="1"/>
      
      <rect x="520" y="170" width="20" height="40" fill="#d1e0ff" stroke="#333" stroke-width="1"/>
      <path d="M520,170 Q530,160 540,170" fill="none" stroke="#333" stroke-width="1"/>
      
      <rect x="560" y="170" width="20" height="40" fill="#d1e0ff" stroke="#333" stroke-width="1"/>
      <path d="M560,170 Q570,160 580,170" fill="none" stroke="#333" stroke-width="1"/>
      
      <rect x="600" y="170" width="20" height="40" fill="#d1e0ff" stroke="#333" stroke-width="1"/>
      <path d="M600,170 Q610,160 620,170" fill="none" stroke="#333" stroke-width="1"/>
    </g>
    
    <!-- Gothic Windows - Bottom Row -->
    <g>
      <rect x="180" y="250" width="20" height="40" fill="#d1e0ff" stroke="#333" stroke-width="1"/>
      <path d="M180,250 Q190,240 200,250" fill="none" stroke="#333" stroke-width="1"/>
      
      <rect x="220" y="250" width="20" height="40" fill="#d1e0ff" stroke="#333" stroke-width="1"/>
      <path d="M220,250 Q230,240 240,250" fill="none" stroke="#333" stroke-width="1"/>
      
      <rect x="260" y="250" width="20" height="40" fill="#d1e0ff" stroke="#333" stroke-width="1"/>
      <path d="M260,250 Q270,240 280,250" fill="none" stroke="#333" stroke-width="1"/>
      
      <rect x="300" y="250" width="20" height="40" fill="#d1e0ff" stroke="#333" stroke-width="1"/>
      <path d="M300,250 Q310,240 320,250" fill="none" stroke="#333" stroke-width="1"/>
      
      <rect x="480" y="250" width="20" height="40" fill="#d1e0ff" stroke="#333" stroke-width="1"/>
      <path d="M480,250 Q490,240 500,250" fill="none" stroke="#333" stroke-width="1"/>
      
      <rect x="520" y="250" width="20" height="40" fill="#d1e0ff" stroke="#333" stroke-width="1"/>
      <path d="M520,250 Q530,240 540,250" fill="none" stroke="#333" stroke-width="1"/>
      
      <rect x="560" y="250" width="20" height="40" fill="#d1e0ff" stroke="#333" stroke-width="1"/>
      <path d="M560,250 Q570,240 580,250" fill="none" stroke="#333" stroke-width="1"/>
      
      <rect x="600" y="250" width="20" height="40" fill="#d1e0ff" stroke="#333" stroke-width="1"/>
      <path d="M600,250 Q610,240 620,250" fill="none" stroke="#333" stroke-width="1"/>
    </g>
    
    <!-- Main Entrance Archway -->
    <g>
      <rect x="370" y="250" width="60" height="100" fill="#8b4513" stroke="#333" stroke-width="1"/>
      <path d="M370,250 Q400,220 430,250" fill="none" stroke="#333" stroke-width="1"/>
      <circle cx="385" cy="300" r="3" fill="#d4af37" stroke="#333" stroke-width="0.5"/>
    </g>
  </g>
  
  <!-- Jacaranda Tree (Famous Sydney University Icon) -->
  <g transform="translate(250, 400)">
    <rect x="-5" y="0" width="10" height="50" fill="#8b4513" stroke="#333" stroke-width="1"/>
    <circle cx="0" cy="-20" r="40" fill="#9370db" stroke="#333" stroke-width="1"/>
    <circle cx="-15" cy="-40" r="20" fill="#9370db" stroke="#333" stroke-width="1"/>
    <circle cx="15" cy="-40" r="20" fill="#9370db" stroke="#333" stroke-width="1"/>
    <circle cx="-25" cy="-15" r="20" fill="#9370db" stroke="#333" stroke-width="1"/>
    <circle cx="25" cy="-15" r="20" fill="#9370db" stroke="#333" stroke-width="1"/>
  </g>
  
  <!-- Modern Building (Fisher Library) -->
  <g transform="translate(600, 350)">
    <rect x="0" y="0" width="120" height="100" fill="#f0f0f0" stroke="#333" stroke-width="1"/>
    <rect x="10" y="10" width="100" height="80" fill="#d1e0ff" stroke="#333" stroke-width="1"/>
    <line x1="10" y1="30" x2="110" y2="30" stroke="#333" stroke-width="0.5"/>
    <line x1="10" y1="50" x2="110" y2="50" stroke="#333" stroke-width="0.5"/>
    <line x1="10" y1="70" x2="110" y2="70" stroke="#333" stroke-width="0.5"/>
    <line x1="60" y1="10" x2="60" y2="90" stroke="#333" stroke-width="0.5"/>
    <text x="60" y="-10" font-family="sans-serif" font-size="10" text-anchor="middle" fill="#333">Library</text>
  </g>
  
  <!-- Lawn and Pathways -->
  <g>
    <!-- Main Lawn -->
    <rect x="150" y="350" width="500" height="150" fill="#90ee90" stroke="#333" stroke-width="1"/>
    
    <!-- Pathways -->
    <path d="M400,350 L400,500" stroke="#d3d3d3" stroke-width="10" fill="none"/>
    <path d="M150,400 L650,400" stroke="#d3d3d3" stroke-width="10" fill="none"/>
    <circle cx="400" cy="400" r="20" fill="#d3d3d3" stroke="#333" stroke-width="0.5"/>
  </g>
  
  <!-- University Crest (Simplified) -->
  <g transform="translate(400, 100) scale(0.4)">
    <rect x="-40" y="-40" width="80" height="80" fill="#003366" stroke="#d4af37" stroke-width="2"/>
    <text x="0" y="0" font-family="serif" font-weight="bold" font-size="16" text-anchor="middle" fill="#d4af37">USYD</text>
    <text x="0" y="20" font-family="serif" font-weight="bold" font-size="10" text-anchor="middle" fill="#d4af37">1850</text>
  </g>
  
  <!-- Text -->
  <text x="400" y="540" font-family="serif" font-size="24" text-anchor="middle" fill="#333">University of Sydney</text>
  <text x="400" y="570" font-family="sans-serif" font-size="16" text-anchor="middle" fill="#666">Free illustration of the historic Quadrangle</text>
</svg>