<svg xmlns="http://www.w3.org/2000/svg" xmlns:xlink="http://www.w3.org/1999/xlink" width="800" height="600" viewBox="0 0 800 600">
  <title>Technical University of Munich</title>
  <rect width="800" height="600" fill="#f8f9fa"/>
  
  <!-- Main Building -->
  <g>
    <!-- Central Building -->
    <rect x="200" y="200" width="400" height="200" fill="#e8e8e8" stroke="#333" stroke-width="2"/>
    
    <!-- Roof -->
    <rect x="190" y="180" width="420" height="20" fill="#d0d0d0" stroke="#333" stroke-width="1"/>
    
    <!-- Windows -->
    <g>
      <!-- First Row -->
      <rect x="230" y="230" width="40" height="60" fill="#d1e0ff" stroke="#333" stroke-width="1"/>
      <rect x="290" y="230" width="40" height="60" fill="#d1e0ff" stroke="#333" stroke-width="1"/>
      <rect x="350" y="230" width="40" height="60" fill="#d1e0ff" stroke="#333" stroke-width="1"/>
      <rect x="410" y="230" width="40" height="60" fill="#d1e0ff" stroke="#333" stroke-width="1"/>
      <rect x="470" y="230" width="40" height="60" fill="#d1e0ff" stroke="#333" stroke-width="1"/>
      
      <!-- Second Row -->
      <rect x="230" y="310" width="40" height="60" fill="#d1e0ff" stroke="#333" stroke-width="1"/>
      <rect x="290" y="310" width="40" height="60" fill="#d1e0ff" stroke="#333" stroke-width="1"/>
      <rect x="350" y="310" width="40" height="60" fill="#d1e0ff" stroke="#333" stroke-width="1"/>
      <rect x="410" y="310" width="40" height="60" fill="#d1e0ff" stroke="#333" stroke-width="1"/>
      <rect x="470" y="310" width="40" height="60" fill="#d1e0ff" stroke="#333" stroke-width="1"/>
    </g>
    
    <!-- Main Entrance -->
    <rect x="350" y="350" width="40" height="50" fill="#8b4513" stroke="#333" stroke-width="1"/>
    
    <!-- Steps -->
    <rect x="340" y="400" width="60" height="5" fill="#d0d0d0" stroke="#333" stroke-width="1"/>
    <rect x="345" y="405" width="50" height="5" fill="#d0d0d0" stroke="#333" stroke-width="1"/>
    <rect x="350" y="410" width="40" height="5" fill="#d0d0d0" stroke="#333" stroke-width="1"/>
  </g>
  
  <!-- Modern Research Building (Left) -->
  <g>
    <rect x="100" y="250" width="80" height="150" fill="#f0f0f0" stroke="#333" stroke-width="1"/>
    <rect x="110" y="260" width="60" height="130" fill="#d1e0ff" stroke="#333" stroke-width="1"/>
    <line x1="110" y1="290" x2="170" y2="290" stroke="#333" stroke-width="1"/>
    <line x1="110" y1="320" x2="170" y2="320" stroke="#333" stroke-width="1"/>
    <line x1="110" y1="350" x2="170" y2="350" stroke="#333" stroke-width="1"/>
    <line x1="140" y1="260" x2="140" y2="390" stroke="#333" stroke-width="1"/>
  </g>
  
  <!-- Modern Research Building (Right) -->
  <g>
    <rect x="620" y="250" width="80" height="150" fill="#f0f0f0" stroke="#333" stroke-width="1"/>
    <rect x="630" y="260" width="60" height="130" fill="#d1e0ff" stroke="#333" stroke-width="1"/>
    <line x1="630" y1="290" x2="690" y2="290" stroke="#333" stroke-width="1"/>
    <line x1="630" y1="320" x2="690" y2="320" stroke="#333" stroke-width="1"/>
    <line x1="630" y1="350" x2="690" y2="350" stroke="#333" stroke-width="1"/>
    <line x1="660" y1="260" x2="660" y2="390" stroke="#333" stroke-width="1"/>
  </g>
  
  <!-- TUM Logo (Simplified) -->
  <g transform="translate(370, 150) scale(0.6)">
    <rect x="0" y="0" width="100" height="30" fill="#3070b3" stroke="none"/>
    <text x="50" y="22" font-family="sans-serif" font-weight="bold" font-size="20" text-anchor="middle" fill="white">TUM</text>
  </g>
  
  <!-- Trees and Greenery -->
  <g>
    <circle cx="150" cy="450" r="25" fill="#6b8e23" stroke="#333" stroke-width="1"/>
    <rect x="145" y="475" width="10" height="25" fill="#8b4513" stroke="#333" stroke-width="1"/>
    
    <circle cx="650" cy="450" r="25" fill="#6b8e23" stroke="#333" stroke-width="1"/>
    <rect x="645" y="475" width="10" height="25" fill="#8b4513" stroke="#333" stroke-width="1"/>
  </g>
  
  <!-- Ground -->
  <rect x="50" y="500" width="700" height="5" fill="#8b4513" stroke="#333" stroke-width="1"/>
  
  <!-- Text -->
  <text x="400" y="540" font-family="sans-serif" font-size="24" text-anchor="middle" fill="#333">Technical University of Munich</text>
  <text x="400" y="570" font-family="sans-serif" font-size="16" text-anchor="middle" fill="#666">Free illustration of the TUM main campus</text>
</svg>